<svg xmlns="http://www.w3.org/2000/svg">
  <symbol id='salad' viewBox="0 0 57.21 57.21" style="enable-background:new 0 0 57.21 57.21;" xml:space="preserve">
    <g>
      <path style="fill:#E6E6E6;" d="M29.046,53.605H40c0.992,0,1.604-1.083,1.092-1.932l-0.01-0.017   c-0.709-1.177-0.847-2.657-0.215-3.877c0.552-1.066,1.449-1.946,2.579-2.486c7.719-3.686,13.193-7.804,13.762-16.206   c0.054-0.796-0.572-1.481-1.37-1.481l-26.791,0l-27.672,0c-0.798,0-1.424,0.685-1.37,1.481c0.569,8.401,6.042,12.52,13.762,16.206   c1.129,0.539,2.027,1.42,2.579,2.486c0.632,1.22,0.494,2.7-0.215,3.877l-0.01,0.017c-0.512,0.85,0.1,1.932,1.092,1.932H29.046z"/>
      <path style="fill:#FFFFFF;" d="M36,47.605h-8.707c-0.552,0-1-0.447-1-1s0.448-1,1-1H36c0.552,0,1,0.447,1,1   S36.552,47.605,36,47.605z"/>
      <path style="fill:#FFFFFF;" d="M24.386,47.605H21c-0.552,0-1-0.447-1-1s0.448-1,1-1h3.386c0.552,0,1,0.447,1,1   S24.938,47.605,24.386,47.605z"/>
      <path style="fill:#FFFFFF;" d="M36,50.605H21c-0.552,0-1-0.447-1-1s0.448-1,1-1h15c0.552,0,1,0.447,1,1S36.552,50.605,36,50.605z"/>
      <path style="fill:#D13834;" d="M41,3.605c-4.971,0-9,4.029-9,9c0,0.703,0.089,1.384,0.241,2.041c0.507,0.521,1.281,0.7,1.959,0.386   l0.392-0.181c1.091-0.505,2.352,0.223,2.46,1.42l0.039,0.43c0.076,0.836,0.738,1.499,1.575,1.574l0.43,0.039   c1.197,0.108,1.925,1.37,1.42,2.46l-0.181,0.392c-0.06,0.129-0.079,0.265-0.105,0.4c0.255,0.022,0.511,0.039,0.771,0.039   c4.971,0,9-4.03,9-9C50,7.634,45.971,3.605,41,3.605z"/>
      <path style="fill:#436B1C;" d="M49.974,13.119c-0.268,4.73-4.177,8.486-8.974,8.486c-0.26,0-0.518-0.012-0.773-0.034   c-0.127,0.658,0.114,1.345,0.682,1.745l0.354,0.25c0.982,0.692,0.982,2.149-0.001,2.84l-0.353,0.249   c-0.321,0.226-0.534,0.548-0.645,0.901c0.014,0.016,0.026,0.033,0.04,0.049h13.389c1.429-1.593,2.305-3.692,2.305-6   C56,17.678,53.481,14.348,49.974,13.119z"/>
      <path style="fill:#ED3F32;" d="M39.586,12.191c-0.256,0-0.512-0.098-0.707-0.293L36.05,9.07c-0.391-0.391-0.391-1.023,0-1.414   c0.391-0.391,1.023-0.391,1.414,0l2.829,2.828c0.391,0.391,0.391,1.023,0,1.414C40.098,12.093,39.842,12.191,39.586,12.191z"/>
      <path style="fill:#ED3F32;" d="M45.243,17.847c-0.256,0-0.512-0.098-0.707-0.293l-2.829-2.828c-0.391-0.391-0.391-1.023,0-1.414   s1.023-0.391,1.414,0l2.829,2.828c0.39,0.391,0.391,1.023,0,1.414C45.754,17.75,45.499,17.847,45.243,17.847z"/>
      <path style="fill:#ED3F32;" d="M42.414,12.191c-0.256,0-0.512-0.098-0.707-0.293c-0.391-0.391-0.391-1.023,0-1.414l2.829-2.828   c0.391-0.391,1.023-0.391,1.414,0c0.391,0.391,0.39,1.023,0,1.414l-2.829,2.828C42.926,12.093,42.67,12.191,42.414,12.191z"/>
      <path style="fill:#ED3F32;" d="M37.257,17.347c-0.256,0-0.512-0.098-0.707-0.293c-0.391-0.391-0.391-1.023,0-1.414l2.329-2.328   c0.391-0.391,1.023-0.391,1.414,0s0.391,1.023,0,1.414l-2.329,2.328C37.769,17.25,37.513,17.347,37.257,17.347z"/>
      <path style="fill:#659C35;" d="M53,21.605h-4c-0.553,0-1-0.447-1-1s0.447-1,1-1h4c0.553,0,1,0.447,1,1S53.553,21.605,53,21.605z"/>
      <path style="fill:#659C35;" d="M47,27.605c-0.553,0-1-0.447-1-1v-4c0-0.553,0.447-1,1-1s1,0.447,1,1v4   C48,27.158,47.553,27.605,47,27.605z"/>
      <path style="fill:#88C057;" d="M23.461,18.387c0.972,0.303,1.505,1.414,1.054,2.388l-0.181,0.392   c-0.353,0.762-0.11,1.667,0.576,2.15l0.354,0.25c0.982,0.692,0.982,2.149-0.001,2.84l-0.353,0.249   c-0.337,0.237-0.563,0.577-0.669,0.951h4.804h11.196c0.105-0.374,0.332-0.713,0.669-0.951l0.353-0.249   c0.982-0.692,0.983-2.148,0.001-2.84l-0.354-0.25c-0.686-0.483-0.928-1.388-0.576-2.15l0.181-0.392   c0.505-1.091-0.223-2.352-1.42-2.46l-0.43-0.039c-0.836-0.076-1.499-0.738-1.575-1.574l-0.039-0.43   c-0.108-1.197-1.37-1.925-2.46-1.42L34.2,15.032c-0.762,0.353-1.667,0.11-2.15-0.576l-0.249-0.353   c-0.692-0.983-2.149-0.983-2.841,0l-0.249,0.353c-0.483,0.686-1.388,0.929-2.15,0.576l-0.392-0.182   c-1.091-0.505-2.352,0.224-2.46,1.42l-0.039,0.43c-0.04,0.442-0.24,0.937-0.393,1.26C23.197,18.131,23.282,18.331,23.461,18.387z"/>
      <path style="fill:#A46F3E;" d="M12.545,13.88l5.76-8.175c0.95-1.349,2.832-1.675,4.18-0.724l0,0c1.349,0.95,1.675,2.832,0.724,4.18   l-5.76,8.175c-0.95,1.349-2.832,1.675-4.18,0.724l0,0C11.92,17.11,11.594,15.229,12.545,13.88z"/>
      <path style="fill:#FBD490;" d="M25.263,23.565l-0.353-0.249c-0.686-0.483-0.929-1.388-0.576-2.15l0.181-0.392   c0.505-1.091-0.224-2.352-1.42-2.46l-0.43-0.039c-0.836-0.076-1.499-0.738-1.574-1.574l-0.039-0.43   c-0.085-0.938-0.88-1.579-1.744-1.573l-1.858,2.637c-0.95,1.349-2.832,1.675-4.18,0.724h0c-1.007-0.71-1.443-1.938-1.204-3.077   c-0.461,0.233-1.008,0.278-1.504,0.049l-0.392-0.182c-1.091-0.505-2.352,0.224-2.46,1.42l-0.039,0.43   c-0.076,0.836-0.738,1.499-1.574,1.574l-0.43,0.039c-1.197,0.108-1.925,1.37-1.42,2.46l0.181,0.392   c0.353,0.762,0.11,1.667-0.576,2.15l-0.353,0.249c-0.982,0.692-0.982,2.149,0,2.841l0.353,0.249   c0.337,0.237,0.563,0.577,0.668,0.95h19.722c0.105-0.374,0.332-0.713,0.668-0.95l0.353-0.249   C26.246,25.714,26.246,24.257,25.263,23.565z"/>
      <path style="fill:#436B1C;" d="M29.5,21.105c-0.256,0-0.512-0.098-0.707-0.293c-0.391-0.391-0.391-1.023,0-1.414l1.5-1.5   c0.391-0.391,1.023-0.391,1.414,0s0.391,1.023,0,1.414l-1.5,1.5C30.012,21.007,29.756,21.105,29.5,21.105z"/>
      <path style="fill:#436B1C;" d="M35,23.605c-0.256,0-0.512-0.098-0.707-0.293l-1-1c-0.391-0.391-0.391-1.023,0-1.414   s1.023-0.391,1.414,0l1,1c0.391,0.391,0.391,1.023,0,1.414C35.512,23.507,35.256,23.605,35,23.605z"/>
      <path style="fill:#436B1C;" d="M30,25.605c-0.256,0-0.512-0.098-0.707-0.293c-0.391-0.391-0.391-1.023,0-1.414l1-1   c0.391-0.391,1.023-0.391,1.414,0s0.391,1.023,0,1.414l-1,1C30.512,25.507,30.256,25.605,30,25.605z"/>
    </g>
  </symbol>

  <symbol id="desert" viewBox="0 0 55.277 55.277" style="enable-background:new 0 0 55.277 55.277;" xml:space="preserve">
    <g>
      <path style="fill:#F75B57;" d="M8.654,20.016C5.117,16.479,4.708,11.163,7.74,8.131l0.914-0.914   c3.032-3.032,8.348-2.623,11.885,0.914c3.282,3.282,3.282,8.603,0,11.885S11.936,23.298,8.654,20.016z"/>
      <path style="fill:#F98282;" d="M12.995,11.183c-1.084,0-2.167-0.412-2.993-1.237c-0.391-0.391-0.391-1.023,0-1.414   c0.39-0.391,1.023-0.391,1.414,0c0.87,0.869,2.287,0.869,3.157,0c0.391-0.391,1.024-0.391,1.415,0c0.39,0.391,0.39,1.024,0,1.414   C15.162,10.771,14.078,11.183,12.995,11.183z"/>
      <path style="fill:#A46F3E;" d="M6.85,33.982l4.5,11.085c2.97,5.46,5.36,6.893,11.163,9.118c3.793,1.455,10.978,1.455,14.742,0   c5.742-2.219,8.171-3.616,11.112-9.023l4.551-11.18c-2.546-2.521-6.667,0.291-9.214,2.812c-2.533-2.521-6.634-0.726-9.167,1.795   c-2.533-2.521-6.634-2.521-9.167,0c-2.559-2.521-6.701-4.316-9.26-1.795C13.551,34.273,9.409,31.462,6.85,33.982z"/>
      <path style="fill:#C18B5F;" d="M19.749,49.09c-0.376,0-0.736-0.213-0.906-0.576l-2.764-5.904c-0.234-0.5-0.019-1.096,0.482-1.329   c0.501-0.233,1.096-0.02,1.33,0.481l2.764,5.904c0.234,0.5,0.019,1.096-0.482,1.329C20.035,49.06,19.891,49.09,19.749,49.09z"/>
      <path style="fill:#C18B5F;" d="M40.018,49.09c-0.142,0-0.287-0.03-0.423-0.095c-0.5-0.233-0.716-0.829-0.482-1.329l2.764-5.904   c0.233-0.501,0.831-0.719,1.33-0.481c0.5,0.233,0.716,0.829,0.482,1.329l-2.764,5.904C40.754,48.877,40.394,49.09,40.018,49.09z"/>
      <path style="fill:#C18B5F;" d="M33.57,51.186c-0.051,0-0.104-0.004-0.156-0.012c-0.545-0.085-0.919-0.597-0.834-1.143l0.921-5.904   c0.085-0.546,0.596-0.916,1.143-0.834c0.545,0.085,0.919,0.597,0.834,1.143l-0.921,5.904C34.48,50.833,34.054,51.186,33.57,51.186z   "/>
      <path style="fill:#C18B5F;" d="M26.197,51.186c-0.484,0-0.91-0.353-0.987-0.846l-0.921-5.904c-0.085-0.546,0.289-1.058,0.834-1.143   c0.546-0.082,1.057,0.288,1.143,0.834l0.921,5.904c0.085,0.546-0.289,1.058-0.834,1.143C26.3,51.182,26.248,51.186,26.197,51.186z"/>
      <path style="fill:#FFF5BB;" d="M49.822,25.258c0.146-0.497,0.224-1.006,0.224-1.524c0-2.784-2.196-5.308-5.757-7.161   c0,0,0.094-16.011-12.962-14.717c0,0,4.21,6.817-1.689,6.879c-2.875,0.03-5.551,0.412-7.827,1.048   c1.922,3.226,1.504,7.458-1.273,10.235c-2.88,2.88-7.331,3.231-10.596,1.055c-0.452,0.85-0.713,1.74-0.713,2.662   c0,0.518,0.078,1.027,0.224,1.524c-2.368,1.752-3.746,3.831-3.746,6.063c0,1.527,0.646,2.983,1.81,4.311L6.85,33.982   c2.559-2.521,6.701,0.291,9.26,2.812c2.559-2.521,6.701-0.726,9.26,1.795c2.533-2.521,6.634-2.521,9.167,0   c2.533-2.521,6.634-4.316,9.167-1.795c2.541-2.515,6.649-5.318,9.196-2.826c0.433-0.85,0.668-1.735,0.668-2.648   C53.568,29.088,52.19,27.01,49.822,25.258z"/>
      <path style="fill:#6A3311;" d="M12.708,8.186c-0.513,0-0.949-0.393-0.995-0.912c-0.005-0.053-0.258-2.415-2.202-3.932   C7.956,2.129,5.718,1.739,2.86,2.174c-0.54,0.085-1.056-0.29-1.14-0.837c-0.084-0.546,0.291-1.056,0.837-1.14   c3.44-0.529,6.204,0.007,8.211,1.59c2.636,2.077,2.925,5.184,2.937,5.314c0.046,0.551-0.362,1.034-0.913,1.08   C12.764,8.185,12.736,8.186,12.708,8.186z"/>
      <path style="fill:#F9DA49;" d="M29.886,20.146c-0.552,0-1-0.447-1-1s0.448-1,1-1c4.132,0,8.052-0.523,11.335-1.515   c0.527-0.159,1.087,0.14,1.247,0.668c0.159,0.529-0.14,1.087-0.668,1.246C38.331,19.592,34.211,20.146,29.886,20.146z"/>
      <path style="fill:#F9DA49;" d="M15.053,29.104c-0.114,0-0.229-0.02-0.342-0.061c-1.111-0.404-2.181-0.875-3.181-1.398   c-0.489-0.256-0.679-0.859-0.423-1.35c0.256-0.489,0.86-0.68,1.35-0.422c0.922,0.481,1.911,0.916,2.939,1.291   c0.519,0.189,0.786,0.763,0.597,1.282C15.845,28.852,15.461,29.104,15.053,29.104z"/>
      <path style="fill:#F9DA49;" d="M29.636,31.451c-2.042,0-4.073-0.123-6.08-0.37c-0.548-0.067-0.938-0.565-0.871-1.114   c0.068-0.548,0.575-0.938,1.115-0.87c4.012,0.493,8.124,0.472,12.222-0.061c0.55-0.08,1.049,0.314,1.121,0.862   s-0.315,1.05-0.863,1.12C34.063,31.307,31.843,31.451,29.636,31.451z"/>
      <path style="fill:#F9DA49;" d="M41.71,29.931c-0.44,0-0.843-0.292-0.964-0.737c-0.145-0.532,0.169-1.082,0.702-1.228   c2.07-0.564,3.914-1.271,5.48-2.098c0.488-0.256,1.094-0.07,1.351,0.418c0.258,0.488,0.071,1.093-0.417,1.352   c-1.695,0.895-3.676,1.654-5.887,2.258C41.886,29.92,41.797,29.931,41.71,29.931z"/>
    </g>
  </symbol>

  <symbol id="burger" viewBox="0 0 512 512" style="enable-background:new 0 0 512 512;" xml:space="preserve">
    <rect x="60.746" y="143.186" style="fill:#FDBD40;" width="242.983" height="104.136"/>
    <path style="fill:#D3843D;" d="M8.678,438.237h329.763l0,0l0,0c0,38.339-31.084,69.424-69.424,69.424H78.102  C39.762,507.661,8.678,476.577,8.678,438.237L8.678,438.237L8.678,438.237z"/>
    <path style="fill:#8EC13F;" d="M34.712,386.169h277.695c14.379,0,26.034,11.654,26.034,26.034l0,0  c0,14.379-11.654,26.034-26.034,26.034H34.712c-14.379,0-26.034-11.654-26.034-26.034l0,0  C8.678,397.824,20.332,386.169,34.712,386.169z"/>
    <path style="fill:#D3843D;" d="M338.441,299.39H8.678l0,0l0,0c0-38.339,31.084-69.424,69.424-69.424h190.915  C307.356,229.966,338.441,261.051,338.441,299.39L338.441,299.39L338.441,299.39z"/>
    <path style="fill:#FDBD40;" d="M295.051,386.169H52.068c-23.96,0-43.39-19.43-43.39-43.39l0,0c0-23.96,19.43-43.39,43.39-43.39  h242.983c23.96,0,43.39,19.43,43.39,43.39l0,0C338.441,366.74,319.011,386.169,295.051,386.169z"/>
    <path style="fill:#E1462B;" d="M283.44,360.136c-11.507,0.217-22.771-3.289-32.108-10.014c-13.668-9.789-32.048-9.789-45.716,0  c-9.346,6.734-20.628,10.249-32.143,10.014c-11.507,0.234-22.78-3.289-32.108-10.023c-6.561-4.938-14.596-7.524-22.806-7.333  c-8.218-0.2-16.271,2.386-22.84,7.333c-9.337,6.734-20.602,10.249-32.108,10.023c-11.507,0.226-22.78-3.289-32.108-10.023  c-6.569-4.946-14.605-7.524-22.823-7.333c-4.79,0-8.678-3.888-8.678-8.678s3.888-8.678,8.678-8.678  c11.507-0.226,22.78,3.289,32.108,10.023c6.569,4.946,14.605,7.524,22.823,7.333c8.227,0.2,16.271-2.386,22.84-7.342  c9.337-6.725,20.601-10.24,32.108-10.014c11.507-0.226,22.78,3.289,32.108,10.023c13.65,9.78,32.022,9.78,45.672,0  c19.326-13.347,44.891-13.347,64.217,0c13.676,9.789,32.065,9.789,45.742,0c9.346-6.725,20.628-10.249,32.143-10.023  c4.79,0,8.678,3.888,8.678,8.678s-3.888,8.678-8.678,8.678c-8.235-0.2-16.289,2.386-22.866,7.342  C306.228,356.847,294.955,360.361,283.44,360.136z"/>
    <g>
      <rect x="86.78" y="256" style="fill:#FFD782;" width="17.356" height="17.356"/>
      <rect x="138.847" y="256" style="fill:#FFD782;" width="17.356" height="17.356"/>
      <rect x="190.915" y="256" style="fill:#FFD782;" width="17.356" height="17.356"/>
      <rect x="242.983" y="256" style="fill:#FFD782;" width="17.356" height="17.356"/>
    </g>
    <rect x="269.017" y="108.475" style="fill:#E1462B;" width="242.983" height="52.068"/>
    <rect x="373.153" y="4.339" style="fill:#AABECE;" width="34.712" height="104.136"/>
    <polygon style="fill:#FCF05A;" points="477.288,507.661 303.729,507.661 269.017,160.542 512,160.542 "/>
    <circle style="fill:#E1462B;" cx="390.508" cy="290.712" r="60.746"/>
    <rect x="60.746" y="39.051" style="fill:#FCF05A;" width="34.712" height="104.136"/>
    <rect x="95.458" y="21.695" style="fill:#F49E21;" width="34.712" height="121.492"/>
    <rect x="130.169" y="39.051" style="fill:#FCF05A;" width="34.712" height="104.136"/>
    <rect x="164.881" y="39.051" style="fill:#F49E21;" width="34.712" height="104.136"/>
    <rect x="199.593" y="39.051" style="fill:#FCF05A;" width="34.712" height="104.136"/>
    <rect x="234.305" y="39.051" style="fill:#F49E21;" width="34.712" height="104.136"/>
  </symbol>

  <symbol id="pizza" viewBox="0 0 55.821 55.821" style="enable-background:new 0 0 55.821 55.821;" xml:space="preserve">
    <g>
      <path style="fill:#FFF1C6;" d="M55.729,18.653C51.876-0.621,22.861,1.658,9.95,3.689C7.804,4.027,6.181,5.8,6.023,7.967   L4.481,27.674c-1.513,0.865-5.584,3.705-4.198,8.602c0.446,1.574,1.078,2.3,1.783,2.477c0.794,0.199,1.371,0.862,1.244,1.671   c-0.402,2.55-1.031,6.92-1.079,9.575c-0.071,3.925,4.567,3.425,4.567,3.425s6.437-0.428,2.727-5.709   c-2.049-2.916-1.871-5.046,1.537-6.372l14.673-6.101c-0.2,1.443-0.034,4.58,2.643,4.761c1.847,0.125,4.995-0.666,3.737-6.226   c-0.091-0.401-0.088-0.809,0.007-1.191l20.82-8.656C55.013,23.069,56.169,20.854,55.729,18.653z"/>
      <path style="fill:#E0AB36;" d="M8.96,45.647c-0.178,0.072-0.309,0.199-0.415,0.344c-0.849-2.045-0.18-3.599,2.515-4.647   l14.673-6.101c-0.12,0.862-0.104,2.325,0.494,3.404L8.96,45.647z M54.734,25.294c-1.142,2.372-3.455,3.199-3.529,3.227   l-18.812,7.627c0.007-0.675-0.071-1.452-0.279-2.37c-0.091-0.401-0.088-0.809,0.007-1.19l20.82-8.656   c1.101-0.458,1.932-1.303,2.414-2.32C55.45,22.986,55.251,24.222,54.734,25.294z"/>
      <g>
        <path style="fill:#F4C44E;" d="M55.729,18.703C51.876-0.572,22.861,1.707,9.95,3.738C7.846,4.069,6.254,5.783,6.043,7.892    c34.133-5.768,43.006,2.534,47.504,12.368c0.646,1.412,0.254,2.668-0.469,3.648C55.06,23.006,56.158,20.852,55.729,18.703z"/>
      </g>
      <path style="fill:#E0AB36;" d="M12,3.542v3.452c0.682-0.09,1.341-0.167,2-0.244V3.542c0-0.127-0.029-0.246-0.072-0.358   c-0.662,0.08-1.292,0.165-1.906,0.25C12.018,3.471,12,3.503,12,3.542z"/>
      <path style="fill:#E0AB36;" d="M20,2.798v3.393c0.683-0.045,1.345-0.078,2-0.107V2.798c0-0.102-0.03-0.194-0.058-0.286   c-0.644,0.028-1.278,0.064-1.906,0.104C20.025,2.678,20,2.734,20,2.798z"/>
      <path style="fill:#E0AB36;" d="M27,2.798v3.208c0.685,0.012,1.35,0.035,2,0.067V2.798c0-0.108-0.03-0.208-0.062-0.305   c-0.623-0.026-1.246-0.043-1.866-0.054C27.029,2.551,27,2.671,27,2.798z"/>
      <path style="fill:#E0AB36;" d="M35.204,3.075c-0.007,0.018-0.022,0.03-0.028,0.048l-1.193,3.423c0.69,0.1,1.358,0.212,2,0.338   l1.082-3.103c0.044-0.127,0.059-0.257,0.052-0.383C36.484,3.278,35.847,3.17,35.204,3.075z"/>
      <path style="fill:#E0AB36;" d="M42.363,4.764c-0.039,0.061-0.087,0.114-0.113,0.185l-1.207,3.33   c0.648,0.242,1.259,0.503,1.845,0.776l1.241-3.424c0.023-0.063,0.019-0.127,0.029-0.19C43.573,5.197,42.973,4.973,42.363,4.764z"/>
      <path style="fill:#E0AB36;" d="M48.865,13.209l2.242-3.254c0.005-0.007,0.005-0.015,0.01-0.022   c-0.461-0.461-0.954-0.888-1.465-1.298c-0.068,0.057-0.14,0.109-0.192,0.186l-2.084,3.025   C47.908,12.282,48.401,12.738,48.865,13.209z"/>
      <path style="fill:#E0AB36;" d="M54.117,14.047c-0.108,0.04-0.213,0.091-0.305,0.17l-2.441,2.088   c0.377,0.566,0.727,1.143,1.053,1.731l2.497-2.136C54.682,15.256,54.419,14.635,54.117,14.047z"/>
      <path style="fill:#88C057;" d="M32.636,17.426c-0.502,0-0.994-0.138-1.423-0.404c-0.608-0.377-1.021-0.964-1.163-1.653   c-0.066-0.321-0.418-0.52-0.79-0.446c-0.689,0.146-1.397,0.021-1.989-0.347c-0.608-0.377-1.021-0.964-1.163-1.653   c-0.041-0.197-0.18-0.31-0.259-0.358c-0.154-0.096-0.342-0.13-0.53-0.087c-0.544,0.107-1.07-0.236-1.182-0.776   c-0.112-0.541,0.235-1.07,0.776-1.183c0.689-0.145,1.398-0.021,1.99,0.347c0.608,0.376,1.021,0.964,1.164,1.653   c0.041,0.197,0.179,0.31,0.258,0.358c0.153,0.095,0.341,0.128,0.53,0.087c1.45-0.291,2.863,0.599,3.153,2.001   c0.041,0.197,0.179,0.31,0.258,0.358c0.153,0.095,0.341,0.128,0.53,0.087c0.543-0.111,1.069,0.236,1.182,0.776   c0.112,0.541-0.235,1.07-0.776,1.183C33.014,17.408,32.824,17.426,32.636,17.426z"/>
      <path style="fill:#659C35;" d="M25,30.284c-0.542,0-0.987-0.434-0.999-0.978c-0.013-0.592,0.209-1.171,0.611-1.591   c0.388-0.404,0.905-0.634,1.457-0.646c0.046-0.001,0.113-0.077,0.11-0.193c-0.012-0.573,0.188-1.119,0.564-1.538   c0.393-0.438,0.927-0.686,1.505-0.697c0.046-0.001,0.113-0.077,0.11-0.193c-0.012-0.552,0.426-1.01,0.979-1.021   c0.007,0,0.015,0,0.022,0c0.542,0,0.988,0.434,1,0.979c0.026,1.207-0.902,2.21-2.068,2.236c-0.075,0.001-0.113,0.118-0.111,0.192   c0.026,1.207-0.902,2.21-2.068,2.236c-0.073,0.048-0.114,0.101-0.112,0.191c0.013,0.553-0.425,1.01-0.977,1.022   C25.015,30.284,25.008,30.284,25,30.284z"/>
      <path style="fill:#659C35;" d="M11.443,25.426c-0.134,0-0.271-0.027-0.402-0.085c-0.506-0.222-0.735-0.813-0.513-1.317   c0.285-0.647,0.794-1.152,1.436-1.421c0.658-0.276,1.376-0.272,2.022,0.011c0.186,0.081,0.356,0.033,0.442-0.003   c0.167-0.069,0.301-0.205,0.378-0.381c0.597-1.354,2.146-1.989,3.458-1.41c0.299,0.131,0.669-0.04,0.821-0.385   c0.223-0.505,0.816-0.732,1.318-0.512c0.505,0.223,0.735,0.813,0.512,1.318c-0.595,1.353-2.145,1.987-3.457,1.408   c-0.301-0.134-0.669,0.04-0.821,0.386c-0.284,0.646-0.794,1.151-1.436,1.42c-0.658,0.275-1.376,0.271-2.021-0.012   c-0.185-0.08-0.356-0.033-0.442,0.003c-0.167,0.07-0.301,0.206-0.378,0.382C12.194,25.204,11.828,25.426,11.443,25.426z"/>
      <path style="fill:#CD6E61;" d="M19.71,29.542c0,2.818-3.042,5.103-6.667,5.103c-4.292,0-5.667-0.285-5.667-3.103   s7.194-4.814,8.667-4.814S19.71,26.724,19.71,29.542z"/>
      <path style="fill:#CD6E61;" d="M22.029,13.316c0,2.818-3.042,5.103-6.667,5.103c-4.292,0-5.667-0.285-5.667-3.103   s7.194-4.814,8.667-4.814S22.029,10.498,22.029,13.316z"/>
      <path style="fill:#CD6E61;" d="M44.333,18.275c0,2.818-3.042,5.103-6.667,5.103c-4.292,0-5.667-0.285-5.667-3.103   s7.194-4.814,8.667-4.814S44.333,15.456,44.333,18.275z"/>
      <circle style="fill:#D79C8C;" cx="35.501" cy="20.551" r="1"/>
      <circle style="fill:#D79C8C;" cx="40.72" cy="17.903" r="1"/>
      <circle style="fill:#D79C8C;" cx="39.407" cy="20.419" r="1"/>
      <circle style="fill:#D79C8C;" cx="13.253" cy="15.785" r="1"/>
      <circle style="fill:#D79C8C;" cx="19.085" cy="14.461" r="1"/>
      <circle style="fill:#D79C8C;" cx="15.862" cy="13.461" r="1"/>
      <circle style="fill:#D79C8C;" cx="11.003" cy="31.848" r="1"/>
      <circle style="fill:#D79C8C;" cx="14.253" cy="29.525" r="1"/>
      <circle style="fill:#D79C8C;" cx="15.862" cy="31.525" r="1"/>
    </g>
  </symbol>

  <symbol id="colorSalad" viewBox="0 0 499.403 499.403" style="enable-background:new 0 0 499.403 499.403;" xml:space="preserve">
<path style="fill:#0F8433;" d="M435.458,63.403c-7.2-6.4-16.8-7.2-24.8-4c2.4-10.4-1.6-21.6-11.2-26.4c-10.4-5.6-23.2-3.2-30.4,5.6  c0-10.4-7.2-20.8-18.4-23.2c-5.6-1.6-11.2-0.8-15.2,1.6c-5.6-5.6-12-8.8-19.2-10.4c-12-1.6-22.4,4-28.8,12.8  c-4.8-12.8-17.6-20.8-31.2-19.2c-15.2,1.6-26.4,13.6-27.2,28c-8-11.2-22.4-16-36-11.2c-16,5.6-24,23.2-17.6,39.2l39.2,105.6  c-16.8,13.6-28,35.2-28,60c0,41.6,32,75.2,71.2,75.2s71.2-33.6,71.2-75.2c0-5.6-0.8-12-1.6-17.6c8,1.6,16-1.6,21.6-8l88-99.2  C445.858,87.403,445.058,72.203,435.458,63.403z"/>
<path style="fill:#026824;" d="M413.858,82.603c-6.4-5.6-15.2-7.2-22.4-4c2.4-9.6-1.6-19.2-10.4-24c-9.6-5.6-21.6-3.2-28,4.8  c0-9.6-6.4-19.2-16.8-21.6c-4.8-1.6-9.6-0.8-14.4,1.6c-4-4.8-10.4-8-17.6-8.8c-10.4-1.6-20.8,4-26.4,12c-4-11.2-16-19.2-28.8-17.6  c-13.6,1.6-24,12-25.6,25.6c-7.2-10.4-20.8-15.2-32.8-10.4c-14.4,5.6-21.6,21.6-16,36l36,96.8c-16,12.8-25.6,32.8-25.6,55.2  c0,38.4,29.6,68.8,65.6,68.8s65.6-31.2,65.6-68.8c0-5.6-0.8-10.4-1.6-16c7.2,0.8,15.2-0.8,20-7.2l80.8-91.2  C423.458,104.203,422.658,90.603,413.858,82.603z"/>
<path style="fill:#003F12;" d="M378.658,113.803c-5.6-4.8-12.8-5.6-19.2-3.2c1.6-8-1.6-16.8-8.8-20.8c-8-4.8-18.4-2.4-24,4.8  c0-8.8-5.6-16-14.4-18.4c-4-0.8-8.8-0.8-12,1.6c-4-4-8.8-7.2-14.4-8c-9.6-0.8-17.6,3.2-22.4,10.4c-4-9.6-13.6-16.8-24.8-15.2  c-12,0.8-20.8,10.4-21.6,21.6c-6.4-8.8-17.6-12.8-28-8.8c-12,4.8-18.4,18.4-14.4,31.2l31.2,83.2c-13.6,10.4-22.4,28-22.4,47.2  c0,32.8,24.8,59.2,56,59.2s56-26.4,56-59.2c0-4.8-0.8-9.6-1.6-13.6c6.4,0.8,12.8-0.8,16.8-6.4l68.8-77.6  C387.458,132.203,386.658,120.203,378.658,113.803z"/>
<circle style="fill:#00A057;" cx="133.858" cy="121.803" r="95.2"/>
<path style="fill:#008730;" d="M133.858,26.603c52.8,0,95.2,42.4,95.2,95.2s-42.4,95.2-95.2,95.2"/>
<circle style="fill:#E9F98C;" cx="133.858" cy="121.803" r="76"/>
<path style="fill:#BEE874;" d="M187.458,68.203c29.6,29.6,29.6,78.4,0,108s-78.4,29.6-108,0"/>
<g>
	<path style="fill:#80C612;" d="M121.858,77.003L121.858,77.003l12,28l12-28l0,0c0.8-1.6,0.8-3.2,0.8-5.6c0-7.2-5.6-12.8-12.8-12.8   s-12.8,5.6-12.8,12.8C121.058,73.803,121.058,75.403,121.858,77.003z"/>
	<path style="fill:#80C612;" d="M95.458,100.203L95.458,100.203l28,11.2l-11.2-28l0,0c-0.8-1.6-1.6-3.2-3.2-4.8   c-4.8-4.8-12.8-4.8-18.4,0c-4.8,4.8-4.8,12.8,0,18.4C92.258,98.603,93.858,99.403,95.458,100.203z"/>
	<path style="fill:#80C612;" d="M159.458,81.803L159.458,81.803l-11.2,28l28-11.2l0,0c1.6-0.8,3.2-1.6,4.8-3.2   c4.8-4.8,4.8-12.8,0-18.4c-4.8-4.8-12.8-4.8-18.4,0C161.058,78.603,160.258,80.203,159.458,81.803z"/>
	<path style="fill:#80C612;" d="M174.658,145.803L174.658,145.803l-28-11.2l11.2,28l0,0c0.8,1.6,1.6,3.2,3.2,4.8   c4.8,4.8,12.8,4.8,18.4,0c4.8-4.8,4.8-12.8,0-18.4C177.858,147.403,176.258,146.603,174.658,145.803z"/>
	<path style="fill:#80C612;" d="M145.858,166.603L145.858,166.603l-12-28l-12,28l0,0c-0.8,1.6-0.8,3.2-0.8,5.6   c0,7.2,5.6,12.8,12.8,12.8s12.8-5.6,12.8-12.8C146.658,169.803,145.858,168.203,145.858,166.603z"/>
	<path style="fill:#80C612;" d="M178.658,109.803L178.658,109.803l-28,12l28,12l0,0c1.6,0.8,3.2,0.8,5.6,0.8   c7.2,0,12.8-5.6,12.8-12.8c0-7.2-5.6-12.8-12.8-12.8C181.858,109.003,180.258,109.003,178.658,109.803z"/>
	<path style="fill:#80C612;" d="M89.058,133.803L89.058,133.803l28-12l-28-12l0,0c-1.6-0.8-3.2-0.8-5.6-0.8   c-7.2,0-12.8,5.6-12.8,12.8c0,7.2,5.6,12.8,12.8,12.8C85.858,134.603,87.458,134.603,89.058,133.803z"/>
	<path style="fill:#80C612;" d="M110.658,161.803L110.658,161.803l11.2-28l-28,11.2l0,0c-1.6,0.8-3.2,1.6-4.8,3.2   c-4.8,4.8-4.8,12.8,0,18.4c4.8,4.8,12.8,4.8,18.4,0C109.058,165.003,109.858,163.403,110.658,161.803z"/>
</g>
<path style="fill:#82C60A;" d="M323.458,45.803L323.458,45.803L323.458,45.803L323.458,45.803c-3.2,46.4-42.4,69.6-23.2,116.8  c11.2,27.2,41.6,34.4,76.8,40.8l0,0h0.8l0,0c24-24,43.2-50.4,36-79.2C399.458,75.403,353.858,81.003,323.458,45.803z"/>
<path style="fill:#5EA304;" d="M377.058,203.403L377.058,203.403L377.058,203.403L377.058,203.403c24-24,44-51.2,36-79.2  c-13.6-48.8-59.2-43.2-89.6-78.4l0,0h-0.8l0,0"/>
<g>
	<polygon style="fill:#74B208;" points="347.458,115.403 316.258,108.203 350.658,125.003 366.658,91.403  "/>
	<polygon style="fill:#74B208;" points="365.058,168.203 334.658,161.003 368.258,177.803 385.058,144.203  "/>
	<polygon style="fill:#74B208;" points="356.258,141.803 321.058,133.003 359.458,152.203 378.658,113.803  "/>
</g>
<path style="fill:#82C60A;" d="M449.858,42.603L449.858,42.603L449.858,42.603L449.858,42.603c-16,30.4-52,34.4-54.4,72.8  c-1.6,22.4,16.8,40,38.4,56l0,0l0,0l0,0c24.8-16,46.4-21.6,50.4-43.2C492.258,90.603,457.858,77.003,449.858,42.603z"/>
<path style="fill:#5EA304;" d="M433.858,171.403L433.858,171.403L433.858,171.403L433.858,171.403c25.6-16,46.4-21.6,50.4-43.2  c7.2-37.6-26.4-51.2-34.4-85.6l0,0l0,0v0.8"/>
<g>
	<polygon style="fill:#74B208;" points="443.458,98.603 425.058,82.603 442.658,105.803 465.058,88.203  "/>
	<polygon style="fill:#74B208;" points="437.858,140.203 419.458,125.003 437.058,147.403 459.458,130.603  "/>
	<polygon style="fill:#74B208;" points="441.058,118.603 420.258,101.003 439.458,127.403 465.058,107.403  "/>
</g>
<path style="fill:#AF0547;" d="M482.658,225.003c-11.2,45.6-40,31.2-78.4,21.6c-38.4-8.8-70.4-9.6-60-55.2  c11.2-45.6,55.2-93.6,93.6-84.8C476.258,116.203,493.858,179.403,482.658,225.003z"/>
<path style="fill:#84003C;" d="M438.658,106.603c38.4,8.8,56,72,44.8,117.6s-40,31.2-78.4,21.6"/>
<ellipse transform="matrix(0.2337 -0.9723 0.9723 0.2337 69.3302 582.6507)" style="fill:#5EA304;" cx="404.31" cy="247.341" rx="4.8" ry="32"/>
<path style="fill:#527C00;" d="M405.858,242.603c16.8,4,30.4,9.6,29.6,12.8c-0.8,2.4-15.2,1.6-32-2.4"/>
<ellipse transform="matrix(0.8656 -0.5008 0.5008 0.8656 -7.9489 220.9613)" style="fill:#D12269;" cx="407.599" cy="125.287" rx="25.601" ry="8"/>
<g>
	<circle style="fill:#680034;" cx="377.858" cy="196.203" r="5.6"/>
	<circle style="fill:#680034;" cx="363.458" cy="216.203" r="5.6"/>
	<circle style="fill:#680034;" cx="400.258" cy="179.403" r="5.6"/>
	<circle style="fill:#680034;" cx="385.858" cy="156.203" r="4.8"/>
	<circle style="fill:#680034;" cx="369.858" cy="173.003" r="4.8"/>
	<circle style="fill:#680034;" cx="414.658" cy="153.003" r="4"/>
	<circle style="fill:#680034;" cx="403.458" cy="134.603" r="4"/>
	<circle style="fill:#680034;" cx="423.458" cy="121.803" r="3.2"/>
	<circle style="fill:#680034;" cx="397.058" cy="221.803" r="5.6"/>
</g>
<g>
	<circle style="fill:#C1145A;" cx="451.458" cy="213.803" r="5.6"/>
	<circle style="fill:#C1145A;" cx="455.458" cy="238.603" r="5.6"/>
	<circle style="fill:#C1145A;" cx="438.658" cy="189.003" r="5.6"/>
	<circle style="fill:#C1145A;" cx="462.658" cy="174.603" r="4.8"/>
	<circle style="fill:#C1145A;" cx="469.858" cy="197.003" r="4.8"/>
	<circle style="fill:#C1145A;" cx="438.658" cy="158.603" r="4"/>
	<circle style="fill:#C1145A;" cx="457.058" cy="147.403" r="4"/>
	<circle style="fill:#C1145A;" cx="444.258" cy="127.403" r="3.2"/>
	<circle style="fill:#C1145A;" cx="423.458" cy="228.203" r="5.6"/>
</g>
<path style="fill:#AF0547;" d="M381.058,217.003c-1.6,36-25.6,29.6-55.2,28c-29.6-0.8-54.4,3.2-52.8-32c1.6-36,27.2-78.4,56.8-77.6  C360.258,137.003,382.658,181.803,381.058,217.003z"/>
<path style="fill:#84003C;" d="M329.858,135.403c29.6,0.8,52.8,45.6,51.2,81.6c-1.6,36-25.6,29.6-55.2,28"/>
<ellipse transform="matrix(0.0384 -0.9993 0.9993 0.0384 67.7344 562.004)" style="fill:#5EA304;" cx="325.875" cy="245.808" rx="4" ry="24.801"/>
<path style="fill:#527C00;" d="M325.858,241.803c13.6,0.8,24,2.4,24,4.8c0,2.4-11.2,3.2-24.8,3.2"/>
<ellipse transform="matrix(0.7506 -0.6608 0.6608 0.7506 -24.4339 243.2027)" style="fill:#D12269;" cx="309.936" cy="153.967" rx="19.201" ry="5.6"/>
<g>
	<circle style="fill:#680034;" cx="298.658" cy="211.403" r="4"/>
	<circle style="fill:#680034;" cx="290.658" cy="229.003" r="4"/>
	<circle style="fill:#680034;" cx="313.058" cy="195.403" r="4"/>
	<circle style="fill:#680034;" cx="298.658" cy="180.203" r="3.2"/>
	<circle style="fill:#680034;" cx="288.258" cy="195.403" r="3.2"/>
	<circle style="fill:#680034;" cx="319.458" cy="173.803" r="3.2"/>
	<circle style="fill:#680034;" cx="308.258" cy="161.003" r="3.2"/>
	<circle style="fill:#680034;" cx="321.058" cy="149.003" r="2.4"/>
	<circle style="fill:#680034;" cx="316.258" cy="227.403" r="4"/>
</g>
<g>
	<circle style="fill:#C1145A;" cx="356.258" cy="213.803" r="4"/>
	<circle style="fill:#C1145A;" cx="362.658" cy="231.403" r="4"/>
	<circle style="fill:#C1145A;" cx="342.658" cy="197.003" r="4"/>
	<circle style="fill:#C1145A;" cx="358.658" cy="182.603" r="3.2"/>
	<circle style="fill:#C1145A;" cx="366.658" cy="198.603" r="3.2"/>
	<circle style="fill:#C1145A;" cx="337.858" cy="174.603" r="3.2"/>
	<path style="fill:#C1145A;" d="M347.458,162.603c0,1.6,0.8,3.2,2.4,3.2s3.2-0.8,3.2-2.4c0-1.6-0.8-3.2-2.4-3.2   S347.458,161.003,347.458,162.603z"/>
	<circle style="fill:#C1145A;" cx="337.858" cy="149.803" r="2.4"/>
	<circle style="fill:#C1145A;" cx="337.058" cy="228.203" r="4"/>
</g>
<path style="fill:#E9F98C;" d="M304.258,254.603c0,0-112-118.4-156-108s-28,45.6-28,45.6s-36-10.4-46.4,9.6s-29.6,29.6-29.6,29.6  l-17.6,18.4l27.2,25.6l273.6,5.6L304.258,254.603z"/>
<path style="fill:#BEE874;" d="M281.058,249.003c0,0-92-97.6-128-88.8s-23.2,37.6-23.2,37.6s-29.6-8.8-38.4,8s-24,24-24,24  l-14.4,15.2l21.6,21.6l224.8,4L281.058,249.003z"/>
<path style="fill:#80C612;" d="M283.458,259.403c0,0-90.4-95.2-125.6-87.2c-35.2,8.8-22.4,36.8-22.4,36.8s-28.8-8.8-37.6,7.2  s-23.2,23.2-23.2,23.2l-13.6,15.2l21.6,21.6l220,4L283.458,259.403z"/>
<path style="fill:#008730;" d="M284.258,269.003c0,0-85.6-91.2-120-83.2c-33.6,8-21.6,34.4-21.6,34.4s-28-8-36,7.2  s-22.4,22.4-22.4,22.4l-13.6,14.4l20.8,20.8l209.6,4L284.258,269.003z"/>
<path style="fill:#026824;" d="M293.058,281.803c0,0-85.6-91.2-120-83.2c-33.6,8-21.6,34.4-21.6,34.4s-28-8-36,7.2  s-22.4,22.4-22.4,22.4l-13.6,14.4l20.8,20.8l209.6,4L293.058,281.803z"/>
<circle style="fill:#D32E26;" cx="49.058" cy="181.803" r="28"/>
<path style="fill:#B20202;" d="M57.858,155.403c14.4,4.8,22.4,20.8,18.4,35.2c-4.8,14.4-20.8,22.4-35.2,18.4"/>
<ellipse transform="matrix(-0.8824 -0.4706 0.4706 -0.8824 -21.1758 341.3807)" style="fill:#F24141;" cx="32.084" cy="173.337" rx="4.8" ry="12.801"/>
<g>
	<path style="fill:#3D1704;" d="M41.858,160.203c0.8,1.6,0,3.2-1.6,4l0,0c-1.6,0.8-3.2,0-4-1.6l-9.6-18.4c-0.8-1.6,0-3.2,1.6-4l0,0   c1.6-0.8,3.2,0,4,1.6L41.858,160.203z"/>
	<path style="fill:#3D1704;" d="M33.858,125.803c0.8-1.6,2.4-1.6,4-0.8l0,0c1.6,0.8,2.4,2.4,1.6,4l-8,14.4c-0.8,1.6-2.4,1.6-4,0.8   l0,0c-1.6-0.8-2.4-2.4-1.6-3.2L33.858,125.803z"/>
</g>
<circle style="fill:#D32E26;" cx="42.658" cy="220.203" r="28"/>
<path style="fill:#B20202;" d="M36.258,193.003c15.2-3.2,30.4,5.6,33.6,20.8s-5.6,30.4-20.8,33.6"/>
<ellipse transform="matrix(-0.9988 0.0495 -0.0495 -0.9988 58.3858 441.4724)" style="fill:#F24141;" cx="23.721" cy="221.46" rx="4.8" ry="12.8"/>
<path style="fill:#3D1704;" d="M25.058,205.003c1.6,0.8,1.6,3.2,0.8,4.8l0,0c-0.8,1.6-2.4,1.6-4,0.8l-17.6-11.2  c-1.6-0.8-2.4-2.4-1.6-4l0,0c0.8-1.6,3.2-1.6,4.8-0.8L25.058,205.003z"/>
<path style="fill:#1BE2D8;" d="M11.458,251.403c22.4,160,121.6,237.6,241.6,237.6s219.2-77.6,241.6-237.6H11.458z"/>
<path style="fill:#06C6C1;" d="M252.258,489.003c120,0,220-77.6,242.4-237.6H9.858"/>
<path style="fill:#07A5A5;" d="M253.058,485.003c120,0,219.2-75.2,241.6-237.6l-243.2,1.6"/>
<rect x="185.858" y="475.403" style="fill:#1BE2D8;" width="136" height="24"/>
<path style="fill:#058A91;" d="M263.458,489.003c112.8-4,208-80.8,230.4-233.6L263.458,489.003z"/>
<rect x="185.858" y="475.403" style="fill:#028399;" width="136" height="24"/>
<polyline style="fill:#006177;" points="185.858,475.403 321.858,475.403 321.858,499.403 "/>
<polygon style="fill:#07A5A5;" points="294.658,317.003 12.258,251.403 304.258,251.403 "/>
<path style="fill:#028399;" d="M497.058,247.403c0,4.8-5.6,12-9.6,12h-465.6c-4.8,0-13.6-6.4-13.6-11.2l0,0c0-8,5.6-12.8,11.2-12.8  h467.2C491.458,235.403,497.058,240.203,497.058,247.403L497.058,247.403z"/>
<path style="fill:#006177;" d="M497.058,247.403L497.058,247.403c0,5.6-4.8,12-9.6,12h-469.6c-5.6,0-9.6-5.6-9.6-11.2l0,0"/>
<g>
	<circle style="fill:#028399;" cx="102.658" cy="305.003" r="12.8"/>
	<circle style="fill:#028399;" cx="177.858" cy="305.003" r="12.8"/>
	<circle style="fill:#028399;" cx="253.058" cy="305.003" r="12.8"/>
	<circle style="fill:#028399;" cx="327.458" cy="305.003" r="12.8"/>
	<circle style="fill:#028399;" cx="402.658" cy="305.003" r="12.8"/>
</g>
<g>
	<path style="fill:#006177;" d="M102.658,293.003c7.2,0,12.8,5.6,12.8,12.8s-5.6,12.8-12.8,12.8"/>
	<path style="fill:#006177;" d="M177.858,293.003c7.2,0,12.8,5.6,12.8,12.8s-5.6,12.8-12.8,12.8"/>
	<path style="fill:#006177;" d="M253.058,293.003c7.2,0,12.8,5.6,12.8,12.8s-5.6,12.8-12.8,12.8"/>
	<path style="fill:#006177;" d="M327.458,293.003c7.2,0,12.8,5.6,12.8,12.8s-5.6,12.8-12.8,12.8"/>
	<path style="fill:#006177;" d="M402.658,293.003c7.2,0,12.8,5.6,12.8,12.8s-5.6,12.8-12.8,12.8"/>
	<polygon style="fill:#006177;" points="154.658,349.803 129.858,325.803 81.058,373.803 129.858,422.603 154.658,397.803    129.858,373.803  "/>
</g>
<polygon style="fill:#028399;" points="203.458,349.803 178.658,325.803 154.658,349.803 178.658,373.803 154.658,397.803   178.658,422.603 203.458,397.803 179.458,373.803 "/>
<g>
	<polygon style="fill:#006177;" points="253.058,349.803 228.258,325.803 203.458,349.803 227.458,373.803 203.458,397.803    228.258,422.603 253.058,397.803 229.058,373.803  "/>
	<polygon style="fill:#006177;" points="301.858,349.803 277.058,325.803 253.058,349.803 277.058,373.803 253.058,397.803    277.058,422.603 301.858,397.803 277.858,373.803  "/>
</g>
<polygon style="fill:#028399;" points="351.458,349.803 326.658,325.803 301.858,349.803 325.858,373.803 301.858,397.803   326.658,422.603 351.458,397.803 327.458,373.803 "/>
<polygon style="fill:#006177;" points="424.258,373.803 376.258,325.803 351.458,349.803 375.458,373.803 351.458,397.803   376.258,422.603 "/>
<path style="fill:#1BE2D8;" d="M489.858,275.403c0.8,0,0.8-8,1.6-8h-476.8c0.8,0,0.8,8,1.6,8H489.858z"/>
<path style="fill:#42BAC6;" d="M73.858,247.403c0,2.4-1.6,4-4,4h-48c-2.4,0-4-1.6-4-4l0,0c0-2.4,1.6-4,4-4h48  C72.258,243.403,73.858,245.003,73.858,247.403L73.858,247.403z"/>
<ellipse transform="matrix(-0.512 -0.859 0.859 -0.512 -200.4579 539.447)" style="fill:#9DFCF3;" cx="53.006" cy="326.665" rx="39.201" ry="13.6"/>
<g>
	<path style="fill:#F4F1E6;" d="M352.258,170.603c44-2.4,81.6,16.8,88.8,42.4c0.8-3.2,0.8-5.6,0.8-8.8   c-1.6-30.4-41.6-53.6-90.4-51.2s-87.2,28.8-85.6,59.2c0,3.2,0.8,5.6,1.6,8.8C272.258,194.603,308.258,173.003,352.258,170.603z"/>
	<path style="fill:#F4F1E6;" d="M337.058,192.203c35.2,2.4,63.2,20,67.2,41.6c0.8-2.4,0.8-4.8,1.6-6.4c1.6-24.8-28.8-46.4-67.2-48.8   c-38.4-2.4-71.2,15.2-72.8,40c0,2.4,0,4.8,0.8,7.2C271.458,204.203,301.858,189.803,337.058,192.203z"/>
</g>
<path style="fill:#77003C;" d="M49.058,21.003c-10.4-4.8-22.4-0.8-26.4,8c-3.2,8,3.2,9.6,11.2,12.8c-0.8,1.6-1.6,3.2-2.4,4.8  c-3.2,6.4,0.8,5.6,3.2,7.2c3.2,1.6,4.8,4,8-2.4c0.8-1.6,1.6-3.2,1.6-4.8c8,4,13.6,7.2,17.6-0.8  C65.058,37.003,59.458,25.803,49.058,21.003z"/>
<path style="fill:#440029;" d="M31.458,46.603c-3.2,6.4,0.8,5.6,3.2,7.2c3.2,1.6,4.8,4,8-2.4c0.8-1.6,1.6-3.2,1.6-4.8  c8,4,13.6,7.2,17.6-0.8c4-8.8-1.6-20-12-24.8"/>
<path style="fill:#77003C;" d="M19.458,68.203c-8,4-12,13.6-8,20c3.2,5.6,7.2,3.2,13.6-0.8c0,1.6,0.8,2.4,1.6,4  c2.4,4.8,4,2.4,6.4,1.6c2.4-1.6,4.8-0.8,2.4-5.6c-1.6-1.6-2.4-2.4-3.2-4c6.4-3.2,11.2-4.8,8-10.4  C37.058,65.803,27.458,64.203,19.458,68.203z"/>
<path style="fill:#440029;" d="M25.858,91.403c2.4,4.8,4,2.4,6.4,1.6c2.4-1.6,4.8-0.8,2.4-5.6c-0.8-1.6-1.6-2.4-2.4-4  c6.4-3.2,11.2-4.8,8-10.4c-3.2-7.2-12.8-8.8-20.8-4.8"/>
<path style="fill:#77003C;" d="M428.258,12.203c-8,4-12,13.6-8,20c2.4,5.6,7.2,3.2,13.6-0.8c0,1.6,0.8,2.4,1.6,4  c2.4,4.8,4,2.4,6.4,1.6c2.4-1.6,4.8-0.8,2.4-5.6c-1.6-1.6-2.4-2.4-3.2-4c6.4-3.2,11.2-4.8,8-10.4  C445.858,9.803,436.258,8.203,428.258,12.203z"/>
<path style="fill:#440029;" d="M434.658,35.403c2.4,4.8,4,2.4,6.4,1.6c2.4-1.6,4.8-0.8,2.4-5.6c-0.8-1.6-1.6-2.4-2.4-4  c6.4-3.2,11.2-4.8,8-10.4c-3.2-7.2-12.8-8.8-21.6-4.8"/>

  </symbol>
</svg>
