<svg xmlns="http://www.w3.org/2000/svg">
  <symbol id="logout" x="0px" y="0px" viewBox="0 0 384 384" style="enable-background:new 0 0 384 384;" xml:space="preserve">
    <g>
        <path d="M341.333,0H42.667C19.093,0,0,19.093,0,42.667V128h42.667V42.667h298.667v298.667H42.667V256H0v85.333 C0,364.907,19.093,384,42.667,384h298.667C364.907,384,384,364.907,384,341.333V42.667C384,19.093,364.907,0,341.333,0z"/>
        <polygon points="151.147,268.48 181.333,298.667 288,192 181.333,85.333 151.147,115.52 206.293,170.667 0,170.667 0,213.333 206.293,213.333"/>
    </g>
  </symbol>

  <symbol id="arrow" viewBox="0 0 129 129" enable-background="new 0 0 129 129">
    <g>
      <path style="fill:#80838e" d="m40.4,121.3c-0.8,0.8-1.8,1.2-2.9,1.2s-2.1-0.4-2.9-1.2c-1.6-1.6-1.6-4.2 0-5.8l51-51-51-51c-1.6-1.6-1.6-4.2 0-5.8 1.6-1.6 4.2-1.6 5.8,0l53.9,53.9c1.6,1.6 1.6,4.2 0,5.8l-53.9,53.9z"/>
    </g>
  </symbol>

  <symbol id="edit" x="0px" y="0px" width="512px" height="512px" viewBox="0 0 512 512" style="enable-background:new 0 0 512 512;" xml:space="preserve">
      <g>
          <path d="M448,177.14V448c0,35.344-28.656,64-64,64H64c-35.344,0-64-28.656-64-64V128c0-35.344,28.656-64,64-64h270.844l-63.969,64   H64v320h320V241.156L448,177.14z M398.875,45.25L376.25,67.875l67.875,67.891l22.625-22.625L398.875,45.25z M444.125,0   L421.5,22.625l67.875,67.891L512,67.875L444.125,0z M150,294.188l67.875,67.875L421.5,158.406l-67.875-67.891L150,294.188z    M128,384h64l-64-64V384z"/>
      </g>
  </symbol>

  <symbol id="delete" x="0px" y="0px" viewBox="0 0 268.476 268.476" style="enable-background:new 0 0 268.476 268.476;" xml:space="preserve">
      <g>
          <path style="fill-rule:evenodd;clip-rule:evenodd;" d="M63.119,250.254c0,0,3.999,18.222,24.583,18.222h93.072   c20.583,0,24.582-18.222,24.582-18.222l18.374-178.66H44.746L63.119,250.254z M170.035,98.442c0-4.943,4.006-8.949,8.949-8.949   c4.943,0,8.95,4.006,8.95,8.949l-8.95,134.238c0,4.943-4.007,8.949-8.949,8.949c-4.942,0-8.949-4.007-8.949-8.949L170.035,98.442z    M125.289,98.442c0-4.943,4.007-8.949,8.949-8.949c4.943,0,8.949,4.006,8.949,8.949v134.238c0,4.943-4.006,8.949-8.949,8.949   c-4.943,0-8.949-4.007-8.949-8.949V98.442z M89.492,89.492c4.943,0,8.949,4.006,8.949,8.949l8.95,134.238   c0,4.943-4.007,8.949-8.95,8.949c-4.942,0-8.949-4.007-8.949-8.949L80.543,98.442C80.543,93.499,84.55,89.492,89.492,89.492z    M218.36,35.811h-39.376V17.899C178.984,4.322,174.593,0,161.086,0L107.39,0C95.001,0,89.492,6.001,89.492,17.899v17.913H50.116   c-7.914,0-14.319,6.007-14.319,13.43c0,7.424,6.405,13.431,14.319,13.431H218.36c7.914,0,14.319-6.007,14.319-13.431   C232.679,41.819,226.274,35.811,218.36,35.811z M161.086,35.811h-53.695l0.001-17.913h53.695V35.811z"/>
      </g>
  </symbol>

  <symbol id="lock" x="0px" y="0px" viewBox="0 0 489.4 489.4" style="enable-background:new 0 0 489.4 489.4;" xml:space="preserve">
      <g>
          <path d="M99,147v51.1h-3.4c-21.4,0-38.8,17.4-38.8,38.8v213.7c0,21.4,17.4,38.8,38.8,38.8h298.2c21.4,0,38.8-17.4,38.8-38.8V236.8    c0-21.4-17.4-38.8-38.8-38.8h-1v-51.1C392.8,65.9,326.9,0,245.9,0C164.9,0.1,99,66,99,147z M267.7,353.2c-3,2.2-3.8,4.3-3.8,7.8    c0.1,15.7,0.1,31.3,0.1,47l0,0c0.3,6.5-3,12.9-8.8,15.8c-13.7,7-27.4-2.8-27.4-15.8v-0.1c0-15.7,0-31.4,0.1-47.1    c0-3.2-0.7-5.3-3.5-7.4c-14.2-10.5-18.9-28.4-11.8-44.1c6.9-15.3,23.8-24.3,39.7-21.1c17.7,3.6,30,17.8,30.2,35.5    C282.5,336,277.6,346,267.7,353.2z M163.3,147c0-45.6,37.1-82.6,82.6-82.6c45.6,0,82.6,37.1,82.6,82.6v51.1H163.3V147z"/>
      </g>
  </symbol>

   <symbol id="add" x="0px" y="0px" viewBox="0 0 286.376 286.376" style="enable-background:new 0 0 286.376 286.376;" xml:space="preserve">
      <g>
          <path style="fill-rule:evenodd;clip-rule:evenodd;" d="M268.477,125.29H161.086V17.899c0-9.885-8.013-17.898-17.898-17.898   s-17.898,8.013-17.898,17.898v107.39H17.9c-9.885,0-17.9,8.013-17.9,17.898c0,9.885,8.015,17.898,17.9,17.898h107.39v107.39   c0,9.885,8.013,17.898,17.898,17.898s17.898-8.013,17.898-17.898v-107.39h107.391c9.885,0,17.898-8.014,17.898-17.898   C286.376,133.303,278.362,125.29,268.477,125.29z"/>
      </g>
   </symbol>

  <symbol id="view" x="0px" y="0px" viewBox="0 0 488.85 488.85" style="enable-background:new 0 0 488.85 488.85;" xml:space="preserve">
      <g>
          <path d="M244.425,98.725c-93.4,0-178.1,51.1-240.6,134.1c-5.1,6.8-5.1,16.3,0,23.1c62.5,83.1,147.2,134.2,240.6,134.2   s178.1-51.1,240.6-134.1c5.1-6.8,5.1-16.3,0-23.1C422.525,149.825,337.825,98.725,244.425,98.725z M251.125,347.025   c-62,3.9-113.2-47.2-109.3-109.3c3.2-51.2,44.7-92.7,95.9-95.9c62-3.9,113.2,47.2,109.3,109.3   C343.725,302.225,302.225,343.725,251.125,347.025z M248.025,299.625c-33.4,2.1-61-25.4-58.8-58.8c1.7-27.6,24.1-49.9,51.7-51.7   c33.4-2.1,61,25.4,58.8,58.8C297.925,275.625,275.525,297.925,248.025,299.625z"/>
      </g>
  </symbol>

  <symbol id="cart" x="0px" y="0px" width="901.359px" height="901.359px" viewBox="0 0 901.359 901.359" style="enable-background:new 0 0 901.359 901.359;" xml:space="preserve">
    <g>
      <g>
        <path d="M675.973,676.02c-62.223,0-112.67,50.447-112.67,112.67s50.447,112.67,112.67,112.67s112.67-50.447,112.67-112.67    S738.193,676.02,675.973,676.02z"/>
        <path d="M394.298,676.02c-62.221,0-112.669,50.447-112.669,112.67s50.448,112.67,112.669,112.67    c62.223,0,112.67-50.447,112.67-112.67S456.521,676.02,394.298,676.02z"/>
        <path d="M890.807,192.386c-10.729-14.718-27.674-23.382-45.826-23.382H265.895L222.377,38.482C214.73,15.486,193.22,0,168.959,0    H56.343C25.204,0,0.01,25.169,0.01,56.335c0,31.165,25.195,56.335,56.333,56.335h72.015l156.13,468.503    c7.704,22.996,29.214,38.514,53.475,38.514h394.348c24.371,0,45.77-15.518,53.475-38.514l112.67-338.037    C904.174,225.973,901.314,207.102,890.807,192.386z"/>
      </g>
    </g>
  </symbol>

  <symbol id="home" x="0px" y="0px" width="484.684px" height="484.684px" viewBox="0 0 484.684 484.684" style="enable-background:new 0 0 484.684 484.684;" xml:space="preserve">
    <g>
      <g>
        <path d="M265.899,102.96c-6.144-7.192-15.125-11.341-24.581-11.341c-9.459,0-18.441,4.148-24.579,11.341L78.837,264.601    c-8.561,10.029-12.247,23.341-10.062,36.348l25.033,149.315c2.611,15.567,16.082,26.878,31.865,26.878h120.269    c-0.036-0.565,0.046-0.775,0.046-1.27V367.454c0-7.038,5.6-12.821,12.638-12.821h57.94c7.044,0,12.792,5.784,12.792,12.821    v109.688h27.607c15.785,0,29.259-11.311,31.866-26.878l25.032-149.356c2.186-13.012-1.5-26.277-10.066-36.307L265.899,102.96z     M208.549,405.972c0,7.044-5.712,12.756-12.75,12.756h-44.261c-7.044,0-12.75-5.712-12.75-12.756v-44.261    c0-7.038,5.707-12.75,12.75-12.75h44.261c7.038,0,12.75,5.712,12.75,12.75V405.972z"/>
        <path d="M477.804,227.033L306.504,36.5c-16.601-18.457-40.409-29.294-65.18-28.95c-24.822,0.063-48.533,10.725-65.036,29.264    L6.793,227.131c-9.855,11.074-8.869,28.029,2.19,37.886c5.121,4.556,11.491,6.792,17.84,6.792c7.383,0,14.745-3.033,20.046-8.992    l169.5-190.221c6.37-7.157,15.506-11.192,25.083-11.192c0.026,0,0.062,0,0.082,0c9.548,0,18.679,3.969,25.063,11.069    L437.902,262.96c9.902,11.039,26.884,11.907,37.891,1.99C486.812,255.048,487.711,238.061,477.804,227.033z"/>
      </g>
    </g>
  </symbol>

  <symbol id="manager"  viewBox="0 0 297 297" enable-background="new 0 0 297 297">
    <g>
      <path d="M148.51,117.216c32.317,0,58.608-26.291,58.608-58.608S180.827,0,148.51,0c-32.317,0-58.608,26.291-58.608,58.608   S116.193,117.216,148.51,117.216z"/>
      <path d="m227.154,145.618c-0.025-0.008-0.073-0.026-0.098-0.032-7.631-1.864-30.999-5.133-30.999-5.133-2.638-0.812-5.457,0.585-6.406,3.188l-35.174,96.509c-2.029,5.567-9.903,5.567-11.932,0l-35.174-96.509c-0.766-2.102-2.75-3.42-4.876-3.42-0.504,0-24.531,3.369-32.53,5.358-21.858,5.435-35.645,26.929-35.645,49.329v80.302c0,12.034 9.756,21.79 21.79,21.79h184.782c12.034,0 21.79-9.756 21.79-21.79v-80.569c-0.001-22.303-14.328-42.096-35.528-49.023z"/>
      <path d="m161.775,138.613c-1.404-1.53-3.456-2.299-5.532-2.299h-15.485c-2.076,0-4.129,0.77-5.532,2.299-2.173,2.368-2.489,5.789-0.946,8.462l8.278,12.479-3.875,32.69 7.631,20.3c0.744,2.042 3.631,2.042 4.375,0l7.631-20.3-3.875-32.69 8.278-12.479c1.541-2.673 1.225-6.094-0.948-8.462z"/>
    </g>
  </symbol>

  <symbol id="user" viewBox="0 0 486.828 486.828" style="enable-background:new 0 0 486.828 486.828;" xml:space="preserve">
    <g>
      <path d="M442.932,74.497l-40.627-56.074c-8.191-11.299-21.188-18.167-36.051-18.315C365.311,0.098,59.806,0,59.806,0   C46.728,0,36.471,10.479,36.471,23.549c0,0,0.601,388.521,0.767,389.523c2.043,12.395,9.231,23.43,19.748,30.27l56.856,37.119   c6.379,4.158,13.752,6.367,21.355,6.367h251.106c35.346,0,64.055-28.773,64.055-64.117V97.428   C450.357,89.116,447.795,81.176,442.932,74.497z M202.654,78.977c25.192,0,45.604,20.417,45.604,45.594   c0,25.183-20.412,45.598-45.604,45.598c-25.172,0-45.594-20.415-45.594-45.598C157.06,99.394,177.482,78.977,202.654,78.977z    M138.641,287.886l16.449-82.055c2.209-11.087,11.937-18.938,23.242-18.938h48.663c11.295,0,21.022,7.815,23.243,18.896   l16.429,82.174c0.403,2.008-0.115,4.087-1.411,5.674c-1.296,1.581-3.246,2.655-5.289,2.655H145.351   c-2.054,0-3.982-1.074-5.289-2.655C138.765,292.051,138.247,289.893,138.641,287.886z M406.6,422.711   c0,11.326-8.973,20.359-20.297,20.359H136.535l-40.791-26.438h251.924c13.08,0,23.379-10.875,23.379-23.947V49.491l35.553,49.4   V422.711L406.6,422.711z"/>
    </g>
  </symbol>

  <symbol id="logout"  viewBox="0 0 512 512" style="enable-background:new 0 0 512 512;" xml:space="preserve">
    <g>
      <path d="M480,0H32C14.328,0,0,14.328,0,32v64c0,17.672,14.328,32,32,32s32-14.328,32-32V64h384v384H64v-32   c0-17.672-14.328-32-32-32S0,398.328,0,416v64c0,17.672,14.328,32,32,32h448c17.672,0,32-14.328,32-32V32   C512,14.328,497.672,0,480,0z"/>
      <path d="M143.094,163.789c-10.391-5.57-23.031-4.969-32.844,1.586l-96,64C5.344,235.313,0,245.297,0,256s5.344,20.688,14.25,26.625   l96,64c5.359,3.57,11.547,5.375,17.75,5.375c5.172,0,10.375-1.258,15.094-3.789C153.5,342.648,160,331.805,160,320v-32h192   c17.672,0,32-14.328,32-32s-14.328-32-32-32H160v-32C160,180.195,153.5,169.352,143.094,163.789z"/>
    </g>
  </symbol>

  <symbol id="settings" viewBox="0 0 896.025 896.025" style="enable-background:new 0 0 896.025 896.025;" xml:space="preserve">
    <g>
      <path id="settings_1_" d="M863.24,382.771l-88.759-14.807c-6.451-26.374-15.857-51.585-28.107-75.099l56.821-70.452   c12.085-14.889,11.536-36.312-1.205-50.682l-35.301-39.729c-12.796-14.355-34.016-17.391-50.202-7.165l-75.906,47.716   c-33.386-23.326-71.204-40.551-112-50.546l-14.85-89.235c-3.116-18.895-19.467-32.759-38.661-32.759h-53.198   c-19.155,0-35.561,13.864-38.608,32.759l-14.931,89.263c-33.729,8.258-65.353,21.588-94.213,39.144l-72.188-51.518   c-15.558-11.115-36.927-9.377-50.504,4.171l-37.583,37.61c-13.548,13.577-15.286,34.946-4.142,50.504l51.638,72.326   c-17.391,28.642-30.584,60.086-38.841,93.515l-89.743,14.985C13.891,385.888,0,402.24,0,421.435v53.156   c0,19.193,13.891,35.547,32.757,38.663l89.743,14.985c6.781,27.508,16.625,53.784,29.709,78.147L95.647,676.44   c-12.044,14.875-11.538,36.312,1.203,50.669l35.274,39.73c12.797,14.382,34.028,17.363,50.216,7.163l77-48.37   c32.581,22.285,69.44,38.664,108.993,48.37l14.931,89.25c3.048,18.896,19.453,32.76,38.608,32.76h53.198   c19.194,0,35.545-13.863,38.661-32.759l14.875-89.25c33.308-8.147,64.531-21.245,93.134-38.5l75.196,53.705   c15.53,11.155,36.915,9.405,50.478-4.186l37.598-37.597c13.532-13.536,15.365-34.893,4.127-50.479l-53.536-75.059   c17.441-28.738,30.704-60.238,38.909-93.816l88.758-14.82c18.921-3.116,32.756-19.469,32.756-38.663v-53.156   C895.998,402.24,882.163,385.888,863.24,382.771z M449.42,616.013c-92.764,0-168-75.25-168-168c0-92.764,75.236-168,168-168   c92.748,0,167.998,75.236,167.998,168C617.418,540.763,542.168,616.013,449.42,616.013z"/>
    </g>
  </symbol>

  <symbol id="help" viewBox="0 0 40.124 40.124" style="enable-background:new 0 0 40.124 40.124;" xml:space="preserve">
    <g>
      <g>
        <path d="M19.938,12.141c1.856,0,2.971,0.99,2.971,2.66c0,3.033-5.414,3.869-5.414,7.55c0,0.99,0.648,2.072,1.979,2.072    c2.042,0,1.795-1.516,2.538-2.6c0.989-1.453,5.6-3,5.6-7.023c0-4.361-3.897-6.188-7.858-6.188c-3.773,0-7.24,2.692-7.24,5.725    c0,1.237,0.929,1.887,2.012,1.887C17.525,16.225,15.979,12.141,19.938,12.141z"/>
        <path d="M22.135,28.973c0-1.393-1.145-2.537-2.537-2.537s-2.537,1.146-2.537,2.537c0,1.393,1.145,2.537,2.537,2.537    S22.135,30.366,22.135,28.973z"/>
        <path d="M40.124,20.062C40.124,9,31.124,0,20.062,0S0,9,0,20.062s9,20.062,20.062,20.062S40.124,31.125,40.124,20.062z M2,20.062    C2,10.103,10.103,2,20.062,2c9.959,0,18.062,8.103,18.062,18.062c0,9.959-8.103,18.062-18.062,18.062    C10.103,38.124,2,30.021,2,20.062z"/>
      </g>
    </g>
  </symbol>
</svg>

