<svg xmlns="http://www.w3.org/2000/svg">
  <symbol id="logout" x="0px" y="0px" viewBox="0 0 384 384" style="enable-background:new 0 0 384 384;" xml:space="preserve">
    <g>
        <path d="M341.333,0H42.667C19.093,0,0,19.093,0,42.667V128h42.667V42.667h298.667v298.667H42.667V256H0v85.333 C0,364.907,19.093,384,42.667,384h298.667C364.907,384,384,364.907,384,341.333V42.667C384,19.093,364.907,0,341.333,0z"/>
        <polygon points="151.147,268.48 181.333,298.667 288,192 181.333,85.333 151.147,115.52 206.293,170.667 0,170.667 0,213.333 206.293,213.333"/>
    </g>
  </symbol>

  <symbol id="arrow" viewBox="0 0 129 129" enable-background="new 0 0 129 129">
    <g>
      <path style="fill:#80838e" d="m40.4,121.3c-0.8,0.8-1.8,1.2-2.9,1.2s-2.1-0.4-2.9-1.2c-1.6-1.6-1.6-4.2 0-5.8l51-51-51-51c-1.6-1.6-1.6-4.2 0-5.8 1.6-1.6 4.2-1.6 5.8,0l53.9,53.9c1.6,1.6 1.6,4.2 0,5.8l-53.9,53.9z"/>
    </g>
  </symbol>

  <symbol id="edit" x="0px" y="0px" width="512px" height="512px" viewBox="0 0 512 512" style="enable-background:new 0 0 512 512;" xml:space="preserve">
        <g>
            <path d="M448,177.14V448c0,35.344-28.656,64-64,64H64c-35.344,0-64-28.656-64-64V128c0-35.344,28.656-64,64-64h270.844l-63.969,64   H64v320h320V241.156L448,177.14z M398.875,45.25L376.25,67.875l67.875,67.891l22.625-22.625L398.875,45.25z M444.125,0   L421.5,22.625l67.875,67.891L512,67.875L444.125,0z M150,294.188l67.875,67.875L421.5,158.406l-67.875-67.891L150,294.188z    M128,384h64l-64-64V384z"/>
        </g>
    </symbol>

    <symbol id="delete" x="0px" y="0px" viewBox="0 0 268.476 268.476" style="enable-background:new 0 0 268.476 268.476;" xml:space="preserve">
        <g>
            <path style="fill-rule:evenodd;clip-rule:evenodd;" d="M63.119,250.254c0,0,3.999,18.222,24.583,18.222h93.072   c20.583,0,24.582-18.222,24.582-18.222l18.374-178.66H44.746L63.119,250.254z M170.035,98.442c0-4.943,4.006-8.949,8.949-8.949   c4.943,0,8.95,4.006,8.95,8.949l-8.95,134.238c0,4.943-4.007,8.949-8.949,8.949c-4.942,0-8.949-4.007-8.949-8.949L170.035,98.442z    M125.289,98.442c0-4.943,4.007-8.949,8.949-8.949c4.943,0,8.949,4.006,8.949,8.949v134.238c0,4.943-4.006,8.949-8.949,8.949   c-4.943,0-8.949-4.007-8.949-8.949V98.442z M89.492,89.492c4.943,0,8.949,4.006,8.949,8.949l8.95,134.238   c0,4.943-4.007,8.949-8.95,8.949c-4.942,0-8.949-4.007-8.949-8.949L80.543,98.442C80.543,93.499,84.55,89.492,89.492,89.492z    M218.36,35.811h-39.376V17.899C178.984,4.322,174.593,0,161.086,0L107.39,0C95.001,0,89.492,6.001,89.492,17.899v17.913H50.116   c-7.914,0-14.319,6.007-14.319,13.43c0,7.424,6.405,13.431,14.319,13.431H218.36c7.914,0,14.319-6.007,14.319-13.431   C232.679,41.819,226.274,35.811,218.36,35.811z M161.086,35.811h-53.695l0.001-17.913h53.695V35.811z"/>
        </g>
    </symbol>

    <symbol id="lock" x="0px" y="0px" viewBox="0 0 489.4 489.4" style="enable-background:new 0 0 489.4 489.4;" xml:space="preserve">
        <g>
            <path d="M99,147v51.1h-3.4c-21.4,0-38.8,17.4-38.8,38.8v213.7c0,21.4,17.4,38.8,38.8,38.8h298.2c21.4,0,38.8-17.4,38.8-38.8V236.8    c0-21.4-17.4-38.8-38.8-38.8h-1v-51.1C392.8,65.9,326.9,0,245.9,0C164.9,0.1,99,66,99,147z M267.7,353.2c-3,2.2-3.8,4.3-3.8,7.8    c0.1,15.7,0.1,31.3,0.1,47l0,0c0.3,6.5-3,12.9-8.8,15.8c-13.7,7-27.4-2.8-27.4-15.8v-0.1c0-15.7,0-31.4,0.1-47.1    c0-3.2-0.7-5.3-3.5-7.4c-14.2-10.5-18.9-28.4-11.8-44.1c6.9-15.3,23.8-24.3,39.7-21.1c17.7,3.6,30,17.8,30.2,35.5    C282.5,336,277.6,346,267.7,353.2z M163.3,147c0-45.6,37.1-82.6,82.6-82.6c45.6,0,82.6,37.1,82.6,82.6v51.1H163.3V147z"/>
        </g>
    </symbol>

     <symbol id="add" x="0px" y="0px" viewBox="0 0 286.376 286.376" style="enable-background:new 0 0 286.376 286.376;" xml:space="preserve">
        <g>
            <path style="fill-rule:evenodd;clip-rule:evenodd;" d="M268.477,125.29H161.086V17.899c0-9.885-8.013-17.898-17.898-17.898   s-17.898,8.013-17.898,17.898v107.39H17.9c-9.885,0-17.9,8.013-17.9,17.898c0,9.885,8.015,17.898,17.9,17.898h107.39v107.39   c0,9.885,8.013,17.898,17.898,17.898s17.898-8.013,17.898-17.898v-107.39h107.391c9.885,0,17.898-8.014,17.898-17.898   C286.376,133.303,278.362,125.29,268.477,125.29z"/>
        </g>
     </symbol>

    <symbol id="view" x="0px" y="0px" viewBox="0 0 488.85 488.85" style="enable-background:new 0 0 488.85 488.85;" xml:space="preserve">
        <g>
            <path d="M244.425,98.725c-93.4,0-178.1,51.1-240.6,134.1c-5.1,6.8-5.1,16.3,0,23.1c62.5,83.1,147.2,134.2,240.6,134.2   s178.1-51.1,240.6-134.1c5.1-6.8,5.1-16.3,0-23.1C422.525,149.825,337.825,98.725,244.425,98.725z M251.125,347.025   c-62,3.9-113.2-47.2-109.3-109.3c3.2-51.2,44.7-92.7,95.9-95.9c62-3.9,113.2,47.2,109.3,109.3   C343.725,302.225,302.225,343.725,251.125,347.025z M248.025,299.625c-33.4,2.1-61-25.4-58.8-58.8c1.7-27.6,24.1-49.9,51.7-51.7   c33.4-2.1,61,25.4,58.8,58.8C297.925,275.625,275.525,297.925,248.025,299.625z"/>
        </g>
    </symbol>
</svg>

